In a countryside town bordering on a magical land, a young man makes a promise to his beloved that he'll retrieve a fallen star by venturing into the magical realm.
 
http://www.imdb.com/title/tt0486655/

Subtitles (srt) : Dutch, English.

Covers included.

Het verhaal over de jongen Tristan, die het hart van zijn geliefde Victoria wil winnen. Hiervoor gaat hij op zoek naar een vallende ster genaamd Yvaine, die hem naar een magische wereld leidt. Hier moet hij het opnemen tegen de boosaardige heks Lamia en de piraat Captain Shakespeare.
 
http://www.moviemeter.nl/film/38115

Ondertitels (srt) : Engels, Nederlands.

Hoesjes bijgevoegd.

General
Complete name                    : Stardust-AC3-XviD-DVDRip[Eng]2007 2Lions-Team\Stardust-AC3-XviD-DVDRip[Eng]2007 2Lions-Team.avi
Format                           : AVI
Format/Info                      : Audio Video Interleave
File size                        : 1.36 GiB
Duration                         : 2h 7mn
Overall bit rate                 : 1 527 Kbps
Writing application              : VirtualDubMod 1.5.4.1 (build 2178/release)
Writing library                  : VirtualDubMod build 2178/release

Video
ID                               : 0
Format                           : MPEG-4 Visual
Format profile                   : Advanced Simple@L5
Format settings, BVOP            : Yes
Format settings, QPel            : No
Format settings, GMC             : No warppoints
Format settings, Matrix          : Default (MPEG)
Muxing mode                      : Packed bitstream
Codec ID                         : XVID
Codec ID/Hint                    : XviD
Duration                         : 2h 7mn
Bit rate                         : 1 070 Kbps
Width                            : 640 pixels
Height                           : 272 pixels
Display aspect ratio             : 2.35:1
Frame rate                       : 23.976 fps
Resolution                       : 8 bits
Colorimetry                      : 4:2:0
Scan type                        : Progressive
Bits/(Pixel*Frame)               : 0.256
Stream size                      : 977 MiB (70%)
Writing library                  : XviD 1.2.0.dev42 (UTC 2005-12)

Audio
ID                               : 1
Format                           : AC-3
Format/Info                      : Audio Coding 3
Format_Settings_ModeExtension    : CM (complete main)
Codec ID                         : 2000
Duration                         : 2h 7mn
Bit rate mode                    : Constant
Bit rate                         : 448 Kbps
Channel(s)                       : 6 channels
Channel positions                : Front: L C R, Side: L R, LFE
Sampling rate                    : 48.0 KHz
Stream size                      : 409 MiB (29%)
Alignment                        : Split accross interleaves
Interleave, duration             : 42 ms (1.00 video frame)
Interleave, preload duration     : 500 ms

Brought to you by 
2Lions Team

meer zien??
                   
Kom dan eens kijken op ons NIEUWE forum 
            
http://www.2lions-site.nl/

2Lions the site to be for all your Dutch MOVIES and more

******************************************

DON T HIT AND RUN Niet gelijk afhaken als de FILM binnen is blijf seeden. 

Don`t quit after you finished the download, but keep seeding

There are fake torrents from uploaders who use our team name.
Those are not ours, or members from our team.
We 2Lions-Team are not responsible for the fake posts on our name

Wij 2Lions-Team zijn niet verantwoordelijk voor die zieke FAKE posten die op onze naam worden gedaan

Please check our site !!!

to the fakers , get a life !!!